<?xml version="1.0" encoding="UTF-8" standalone="no"?>
<!-- Uploaded to: SVG Repo, www.svgrepo.com, Generator: SVG Repo Mixer Tools -->

<svg
   fill="#000000"
   height="800px"
   width="800px"
   version="1.1"
   id="Capa_1"
   viewBox="0 0 54 54"
   xml:space="preserve"
   sodipodi:docname="appicon.svg"
   inkscape:version="1.3.1 (9b9bdc1480, 2023-11-25, custom)"
   xmlns:inkscape="http://www.inkscape.org/namespaces/inkscape"
   xmlns:sodipodi="http://sodipodi.sourceforge.net/DTD/sodipodi-0.dtd"
   xmlns="http://www.w3.org/2000/svg"
   xmlns:svg="http://www.w3.org/2000/svg"><defs
   id="defs2" /><sodipodi:namedview
   id="namedview2"
   pagecolor="#ffffff"
   bordercolor="#000000"
   borderopacity="0.25"
   inkscape:showpageshadow="2"
   inkscape:pageopacity="0.0"
   inkscape:pagecheckerboard="0"
   inkscape:deskcolor="#d1d1d1"
   showgrid="false"
   inkscape:zoom="0.79019183"
   inkscape:cx="399.9029"
   inkscape:cy="435.33733"
   inkscape:window-width="1846"
   inkscape:window-height="1136"
   inkscape:window-x="74"
   inkscape:window-y="27"
   inkscape:window-maximized="1"
   inkscape:current-layer="Capa_1" />

<rect
   style="fill:#ea1e63;fill-opacity:1;stroke:#ffffff;stroke-width:0;stroke-dasharray:none;stroke-opacity:1"
   id="rect11"
   width="55.485565"
   height="55.091602"
   x="-0.22016418"
   y="0.068209052" /><path
   id="XMLID_569_"
   d="m 31.734823,31.320144 5.150674,-10.195233 c 0.186176,-0.368885 0.161657,-0.743949 -0.06327,-1.017639 -0.196034,-0.295423 -0.548668,-0.426975 -0.955555,-0.355473 L 24.61608,21.725084 c -0.563207,0.09881 -1.310954,0.65358 -1.568818,1.163946 L 17.89665,33.084141 c -0.179015,0.35423 -0.163243,0.714161 0.03745,0.98466 0.0083,0.01113 0.01679,0.02212 0.02568,0.03293 0.196609,0.29447 0.548548,0.426915 0.955627,0.35557 l 11.250547,-1.973324 c 0.56328,-0.09871 1.311074,-0.653519 1.568841,-1.163812 z m -1.759041,0.09216 -10.988679,1.927374 5.030709,-9.957892 c 0.101799,-0.201565 0.566081,-0.546027 0.788504,-0.585011 l 10.988715,-1.927326 -5.030697,9.957808 c -0.101799,0.201565 -0.566081,0.546027 -0.788552,0.585047 z M 18.681561,28.901556 c -0.204614,0.02916 -0.399121,-0.05992 -0.514409,-0.215312 -0.05213,-0.07026 -0.08805,-0.154126 -0.10145,-0.246718 -0.496619,-3.436175 0.9219,-6.852058 3.701825,-8.914554 2.779924,-2.062497 6.460413,-2.429698 9.604989,-0.95811 0.272228,0.127397 0.39025,0.451244 0.263621,0.723364 -0.126625,0.272116 -0.449938,0.389418 -0.722166,0.262021 -2.782201,-1.301986 -6.038255,-0.977268 -8.497495,0.847305 -2.459241,1.824573 -3.714052,4.846655 -3.274718,7.886799 0.04295,0.297508 -0.163013,0.572885 -0.460202,0.615208 z M 20.73875,18.138229 c -0.240913,0.178739 -0.581419,0.127839 -0.760624,-0.113701 -0.179204,-0.24154 -0.129189,-0.582177 0.111724,-0.760916 4.20083,-3.116703 9.920202,-3.210532 14.232043,-0.233611 0.24744,0.170648 0.310081,0.509593 0.140039,0.756818 -0.170075,0.247176 -0.508494,0.309078 -0.75595,0.138298 -3.928483,-2.712295 -9.139668,-2.626655 -12.967232,0.213112 z m 15.361824,7.169352 c 0.297141,-0.04229 0.572824,0.164512 0.615854,0.462032 0.496582,3.436128 -0.921889,6.851973 -3.701861,8.914506 -2.779974,2.062532 -6.460366,2.429663 -9.604906,0.958123 -0.08474,-0.03966 -0.154577,-0.09837 -0.206705,-0.168627 -0.115288,-0.15539 -0.144111,-0.367322 -0.05691,-0.554739 0.126624,-0.272116 0.449939,-0.389418 0.722165,-0.262021 2.782165,1.301936 6.038208,0.977303 8.497497,-0.847306 2.459288,-1.824609 3.714051,-4.846656 3.274717,-7.886799 -0.04299,-0.297471 0.163012,-0.572884 0.460154,-0.615171 z m -6.710151,0.313538 c -0.820101,-1.105369 -2.384158,-1.339125 -3.486609,-0.521189 -1.102453,0.817938 -1.332192,2.382634 -0.512127,3.487953 0.820066,1.105321 2.384159,1.339127 3.486611,0.52119 1.102451,-0.817937 1.332191,-2.382633 0.512125,-3.487954 z m -3.12639,2.319548 c -0.462269,-0.623066 -0.33277,-1.505052 0.28868,-1.966121 0.621449,-0.461069 1.503096,-0.329279 1.965365,0.293788 0.462269,0.623066 0.332769,1.505053 -0.28868,1.966122 -0.62145,0.46107 -1.50306,0.329327 -1.965365,-0.293789 z m 8.428337,9.004869 c -4.151447,3.080064 -9.825759,3.204649 -14.119816,0.310134 -0.05286,-0.03559 -0.09751,-0.07886 -0.133411,-0.127253 -0.133602,-0.180073 -0.146926,-0.431679 -0.01507,-0.627973 0.16733,-0.249054 0.505046,-0.314739 0.754293,-0.146712 3.912372,2.63731 9.082414,2.52366 12.865051,-0.282775 0.240914,-0.17874 0.581419,-0.12784 0.760623,0.1137 0.179205,0.24154 0.129239,0.582141 -0.111674,0.76088 z"
   style="stroke-width:0.0604242;fill:#ea1e63;fill-opacity:1"
   inkscape:transform-center-x="2.4613541"
   inkscape:transform-center-y="1.3515949" /><path
   style="fill:#ea1e63;fill-opacity:1;stroke:#000000;stroke-width:37.79527559;stroke-opacity:1;stroke-dasharray:none"
   d="m 347.02331,768.26889 c -5.70044,-3.47576 -5.63305,-2.90929 -5.66751,-47.6428 -0.0337,-43.7509 -0.45931,-49.10009 -4.7425,-59.60388 -2.94735,-7.22785 -9.13017,-15.8814 -15.12534,-21.1696 -6.14591,-5.42116 -19.0593,-11.78387 -27.52823,-13.56373 -8.68789,-1.82589 -21.49602,-1.19479 -29.5302,1.45504 -12.54705,4.13826 -16.27239,7.15443 -48.8798,39.57489 -28.02061,27.85993 -30.82742,30.39938 -34.08256,30.83599 -2.29302,0.30755 -4.46886,-0.0114 -6.15375,-0.90209 -4.39797,-2.32494 -72.65755,-71.41719 -73.34836,-74.24313 -1.46971,-6.01223 -0.85468,-6.7839 30.7919,-38.63424 32.62528,-32.83534 35.53542,-36.46204 39.52098,-49.2523 2.64534,-8.4893 3.23422,-20.47123 1.42933,-29.08277 -1.77469,-8.46744 -8.13329,-21.37617 -13.55988,-27.52823 -5.2882,-5.99517 -13.94175,-12.17799 -21.1696,-15.12534 -10.50175,-4.28236 -15.84961,-4.70777 -59.783159,-4.75569 -30.719658,-0.0335 -41.258533,-0.319 -42.926161,-1.16283 -1.215652,-0.61513 -3.128404,-2.48082 -4.250559,-4.14599 l -2.040282,-3.02758 V 400 349.70539 l 2.040282,-3.02758 c 1.122155,-1.66517 3.034907,-3.53086 4.250559,-4.14599 1.667628,-0.84383 12.206503,-1.12931 42.926161,-1.16283 30.037949,-0.0328 42.475979,-0.36037 47.427289,-1.24921 18.74388,-3.36484 33.14678,-14.21387 41.67913,-31.39495 9.23863,-18.60326 8.66216,-38.69735 -1.61734,-56.37584 -2.90714,-4.99963 -9.75259,-12.40952 -33.91461,-36.71102 -31.67316,-31.85598 -32.27858,-32.61555 -30.80404,-38.64755 0.69081,-2.82594 68.95039,-71.91819 73.34836,-74.24312 1.68134,-0.88882 3.86116,-1.2096 6.14135,-0.90376 3.23772,0.43427 6.10258,3.02407 34.08255,30.81023 32.71651,32.48992 35.67468,34.88377 48.45337,39.21025 14.703,4.97799 29.987,3.76066 44.73414,-3.56297 17.18108,-8.53235 28.03011,-22.93525 31.39495,-41.67913 0.88884,-4.95131 1.21645,-17.38934 1.24921,-47.427289 0.0335,-30.719658 0.319,-41.258533 1.16283,-42.926161 0.61513,-1.215652 2.48082,-3.128404 4.14599,-4.250559 l 3.02758,-2.040282 H 400 450.29461 l 3.02758,2.040282 c 1.66517,1.122155 3.53086,3.034907 4.14599,4.250559 0.84383,1.667628 1.12931,12.206503 1.16283,42.926161 0.0479,43.933549 0.47333,49.281409 4.75569,59.783159 2.94735,7.22785 9.13017,15.8814 15.12534,21.1696 6.15206,5.42659 19.06079,11.78519 27.52823,13.55988 8.61154,1.80489 20.59347,1.21601 29.08277,-1.42933 12.79539,-3.98717 16.41029,-6.88906 49.33964,-39.60789 27.98468,-27.80575 30.84428,-30.39217 34.08255,-30.82651 2.28019,-0.30584 4.46001,0.0149 6.14135,0.90376 4.39797,2.32493 72.65755,71.41718 73.34836,74.24312 1.4697,6.01223 0.85468,6.7839 -30.7919,38.63424 -32.62528,32.83534 -35.53542,36.46204 -39.52098,49.2523 -2.64534,8.4893 -3.23422,20.47123 -1.42933,29.08277 1.84442,8.8001 8.20509,21.50212 14.02274,28.00287 5.48556,6.12967 13.26362,11.61502 20.86595,14.71539 10.32645,4.21131 15.81618,4.64323 59.62395,4.691 30.71966,0.0335 41.25853,0.319 42.92616,1.16283 1.21566,0.61513 3.12841,2.48082 4.25056,4.14599 l 2.04028,3.02758 V 400 450.29461 l -2.04028,3.02758 c -1.12215,1.66517 -3.0349,3.53086 -4.25056,4.14599 -1.66763,0.84383 -12.2065,1.12931 -42.92616,1.16283 -43.93355,0.0479 -49.28141,0.47333 -59.78316,4.75569 -7.22785,2.94735 -15.8814,9.13017 -21.1696,15.12534 -5.42659,6.15206 -11.78519,19.06079 -13.55988,27.52823 -1.80489,8.61154 -1.21601,20.59347 1.42933,29.08277 3.98556,12.79026 6.8957,16.41696 39.52098,49.2523 31.64658,31.85034 32.2616,32.62201 30.7919,38.63424 -0.69081,2.82594 -68.95039,71.91819 -73.34836,74.24313 -1.68134,0.88881 -3.86116,1.20959 -6.14135,0.90376 -3.23827,-0.43435 -6.09787,-3.02077 -34.08255,-30.82652 -32.92935,-32.71883 -36.54425,-35.62072 -49.33964,-39.60789 -8.4893,-2.64534 -20.47123,-3.23422 -29.08277,-1.42933 -8.46744,1.77469 -21.37617,8.13329 -27.52823,13.55988 -5.99517,5.2882 -12.17799,13.94175 -15.12534,21.1696 -4.28236,10.50175 -4.70777,15.84961 -4.75569,59.78316 -0.0335,30.71966 -0.319,41.25853 -1.16283,42.92616 -0.61513,1.21566 -2.48082,3.12841 -4.14599,4.25056 l -3.02758,2.04028 -50.20323,-0.003 c -48.21391,-0.003 -50.31676,-0.0726 -53.06807,-1.75013 z"
   id="path2"
   sodipodi:nodetypes="cssssssssssssssssscccssssssssssssssssscccssssssssssssssssssscccssssssssssssssssssscscc"
   transform="scale(0.0675)" /><path
   style="fill:#ea1e63;fill-opacity:1;stroke:#000000;stroke-width:0;stroke-opacity:1"
   d=""
   id="path8"
   transform="scale(0.0675)" /><path
   id="XMLID_569_-0"
   d="m 33.123979,29.869582 4.158835,-12.446934 c 0.150261,-0.450306 0.05341,-0.84956 -0.258954,-1.084167 -0.2826,-0.266044 -0.718208,-0.311807 -1.180228,-0.122909 l -12.775701,5.219022 c -0.639551,0.261295 -1.411609,1.066698 -1.619826,1.689789 L 17.28932,35.571171 c -0.144564,0.43248 -0.06068,0.817751 0.222814,1.055545 0.01171,0.0097 0.02362,0.01934 0.036,0.02857 0.283096,0.26486 0.718057,0.311775 1.18033,0.122996 l 12.77564,-5.219051 c 0.639652,-0.261208 1.41176,-1.066664 1.619877,-1.689649 z M 31.087134,30.45139 18.60886,35.548942 22.670809,23.391783 c 0.08218,-0.24607 0.561565,-0.746152 0.814141,-0.849304 L 35.963277,17.44497 31.901325,29.602034 c -0.08218,0.24607 -0.561566,0.746152 -0.814191,0.849356 z"
   sodipodi:nodetypes="cccccccsccccccccccc"
   style="stroke-width:0.0692515;fill:#ffffff" /><path
   d="m 27.168791,23.53909 c -1.752218,0 -3.177624,1.403866 -3.177624,3.129437 0,1.725571 1.425482,3.129437 3.177624,3.129437 1.752141,0 3.177624,-1.403866 3.177624,-3.129437 0,-1.725571 -1.425483,-3.129437 -3.177624,-3.129437 z m 0,4.893467 c -0.987679,0 -1.791193,-0.791329 -1.791193,-1.76403 0,-0.972701 0.803514,-1.76403 1.791193,-1.76403 0.987678,0 1.791192,0.791329 1.791192,1.76403 0,0.972701 -0.803437,1.76403 -1.791192,1.76403 z"
   id="path1"
   style="fill:#f9f9f9;stroke-width:0.076438" /><path
   d="m 36.942412,23.745835 c 0.287121,-0.07661 0.545783,0.130559 0.57783,0.462868 0.369738,3.837968 -1.101803,7.838538 -3.840359,10.440486 -2.738557,2.601949 -6.289917,3.373723 -9.268164,2.014142 -0.08025,-0.03665 -0.145586,-0.09628 -0.19352,-0.170678 -0.106007,-0.164569 -0.127076,-0.40146 -0.03732,-0.621867 0.130328,-0.320019 0.44498,-0.484007 0.702811,-0.3663 2.635035,1.202879 5.776919,0.520278 8.19957,-1.781522 2.42265,-2.301802 3.724371,-5.841142 3.39726,-9.236821 -0.03201,-0.332259 0.174764,-0.663699 0.461894,-0.740308 z m -1.7198,13.298347 c -4.0896,3.885596 -9.551115,4.576242 -13.590303,1.718721 -0.04971,-0.03513 -0.09131,-0.07973 -0.124319,-0.130995 -0.122846,-0.190711 -0.127761,-0.473974 0.0052,-0.708746 0.168754,-0.29788 0.495639,-0.404883 0.730091,-0.239 3.680156,2.603614 8.656316,1.974191 12.3826,-1.566216 0.237323,-0.225484 0.563228,-0.200909 0.728004,0.0549 0.164776,0.255809 0.106027,0.645851 -0.131296,0.871336 z"
   id="path1-7"
   style="stroke-width:0.0629317;stroke:#000000;stroke-opacity:1;fill:#ffffff;fill-opacity:1" /><path
   d="m 16.236056,30.172817 c -0.287121,0.07661 -0.545783,-0.130559 -0.57783,-0.462868 -0.369738,-3.837968 1.101803,-7.838538 3.840359,-10.440486 2.738557,-2.601949 6.289917,-3.373723 9.268164,-2.014142 0.08025,0.03665 0.145586,0.09628 0.19352,0.170678 0.106007,0.164569 0.127076,0.40146 0.03732,0.621867 -0.130328,0.320019 -0.44498,0.484007 -0.702811,0.3663 -2.635035,-1.202879 -5.776919,-0.520278 -8.19957,1.781522 -2.42265,2.301802 -3.724371,5.841142 -3.39726,9.236821 0.03201,0.332259 -0.174764,0.663699 -0.461894,0.740308 z m 1.7198,-13.298347 c 4.0896,-3.885596 9.551115,-4.576242 13.590303,-1.718721 0.04971,0.03513 0.09131,0.07973 0.124319,0.130995 0.122846,0.190711 0.127761,0.473974 -0.0052,0.708746 -0.168754,0.29788 -0.495639,0.404883 -0.730091,0.239 -3.680156,-2.603614 -8.656316,-1.974191 -12.3826,1.566216 -0.237323,0.225484 -0.563228,0.200909 -0.728004,-0.0549 -0.164776,-0.255809 -0.106027,-0.645851 0.131296,-0.871336 z"
   id="path1-7-5"
   style="stroke-width:0.0629317;fill:#ffffff;fill-opacity:1" /></svg>
