<?xml version="1.0" encoding="iso-8859-1"?>
<!-- Uploaded to: SVG Repo, www.svgrepo.com, Generator: SVG Repo Mixer Tools -->
<svg fill="#000000" height="800px" width="800px" version="1.1" id="Layer_1" xmlns="http://www.w3.org/2000/svg" xmlns:xlink="http://www.w3.org/1999/xlink" 
	 viewBox="0 0 481.9 481.9" xml:space="preserve">
<g>
	<g>
		<path d="M378.625,11.387c-42.767-19.653-74.692-9.864-105.638-0.376c-29.515,9.035-57.374,17.619-94.871,0.376
			c-2.334-1.055-5.045-0.904-7.228,0.527c-0.904,0.526-1.581,1.28-2.184,2.183h-1.28v388.82h-48.866
			c-10.842,0-19.727,8.885-19.727,19.726v51.728c0,4.141,3.388,7.529,7.529,7.529h137.186c4.141,0,7.529-3.388,7.529-7.529v-51.728
			c0-10.842-8.885-19.726-19.727-19.726h-48.866V169.128c13.929,5.044,26.654,7.002,38.701,7.002c20.254,0,38.4-5.572,56.245-10.992
			c29.515-9.035,57.374-17.619,94.946-0.377c2.334,1.056,5.045,0.904,7.228-0.526c2.108-1.356,3.464-3.765,3.464-6.325V18.238
			C383.067,15.303,381.336,12.591,378.625,11.387z"/>
	</g>
</g>
</svg>